<svg t="1659429900506" class="icon" viewBox="0 0 1024 1024" version="1.1" xmlns="http://www.w3.org/2000/svg" p-id="2286" width="24" height="24"><path d="M348.586667 170.666667l2.901333-7.338667A128 128 0 0 1 590.037333 170.666667H725.333333a128 128 0 0 1 128 128v135.253333c49.706667 17.621333 85.333333 65.024 85.333334 120.746667 0 55.168-34.986667 102.528-85.333334 120.448V810.666667a128 128 0 0 1-128 128h-128a42.666667 42.666667 0 0 1-42.368-37.674667l-0.512-11.349333A85.333333 85.333333 0 0 0 384 896a42.666667 42.666667 0 0 1-42.666667 42.666667H213.333333a128 128 0 0 1-128-128v-128a42.666667 42.666667 0 0 1 37.674667-42.368l11.349333-0.512A85.333333 85.333333 0 0 0 128 469.333333a42.666667 42.666667 0 0 1-42.666667-42.666666V298.666667a128 128 0 0 1 128-128h135.253334zM725.333333 853.333333a42.666667 42.666667 0 0 0 42.666667-42.666666v-170.666667a42.666667 42.666667 0 0 1 41.088-42.666667l4.821333-0.128a42.666667 42.666667 0 0 0 1.706667-84.906666l-9.941333-0.597334A42.666667 42.666667 0 0 1 768 469.333333V298.666667a42.666667 42.666667 0 0 0-42.666667-42.666667h-170.666666a42.666667 42.666667 0 0 1-42.368-37.674667l-0.597334-9.984a42.666667 42.666667 0 0 0-84.736 0l-0.597333 9.984A42.666667 42.666667 0 0 1 384 256H213.333333a42.666667 42.666667 0 0 0-42.666666 42.666667v90.709333a170.752 170.752 0 0 1 0 330.581333V810.666667a42.666667 42.666667 0 0 0 42.666666 42.666666h90.709334a170.752 170.752 0 0 1 328.277333-8.106666l2.304 8.106666H725.333333z" p-id="2287"></path></svg>